<svg width="54" height="54" viewBox="0 0 54 54" fill="none" xmlns="http://www.w3.org/2000/svg">
<path d="M46.5962 27C46.5962 28.933 48.1632 30.5 50.0962 30.5C52.0292 30.5 53.5962 28.933 53.5962 27H46.5962ZM27.0962 53.5C29.0292 53.5 30.5962 51.933 30.5962 50C30.5962 48.067 29.0292 46.5 27.0962 46.5V53.5ZM27.0962 46.5C16.3266 46.5 7.59619 37.7696 7.59619 27H0.596191C0.596191 41.6355 12.4606 53.5 27.0962 53.5V46.5ZM7.59619 27C7.59619 16.2304 16.3266 7.5 27.0962 7.5V0.5C12.4606 0.5 0.596191 12.3645 0.596191 27H7.59619ZM27.0962 7.5C37.8657 7.5 46.5962 16.2304 46.5962 27H53.5962C53.5962 12.3645 41.7317 0.5 27.0962 0.5V7.5Z" fill="#02FDD0"/>
</svg>
