<svg width="48" height="57" viewBox="0 0 48 57" fill="none" xmlns="http://www.w3.org/2000/svg">
<path d="M35.6826 41.1834L37.0034 40.2295C38.6666 39.2512 39.8406 38.762 40.5254 38.762C42.0418 38.762 43.6806 40.1317 45.4416 42.8711C46.5178 44.5832 47.0559 45.9528 47.0559 46.9801C47.0559 48.0073 46.7134 48.8634 46.0286 49.5482C45.3927 50.2331 44.6345 50.8445 43.754 51.3826C42.8734 51.9207 42.0174 52.4343 41.1858 52.9235C40.4031 53.4127 38.7644 54.0486 36.2696 54.8313C33.7749 55.6139 31.3535 56.0053 29.0055 56.0053C26.7063 56.0053 24.3583 55.7118 21.9614 55.1248C19.6134 54.4889 17.1675 53.4616 14.6239 52.043C12.1291 50.5755 9.87891 48.8145 7.8733 46.76C5.8677 44.6565 4.20454 41.9906 2.88377 38.762C1.61193 35.4846 0.975998 31.9381 0.975998 28.1226C0.975998 24.3071 1.61193 20.8584 2.88377 17.7766C4.15561 14.6459 5.76987 12.0778 7.72655 10.0722C9.73216 8.01768 12.0068 6.30559 14.5505 4.93591C19.3444 2.29439 24.1627 0.973633 29.0055 0.973633C31.3046 0.973633 33.6281 1.34051 35.9761 2.07426C38.3731 2.7591 40.183 3.4684 41.4059 4.20215L43.1669 5.22941C44.0474 5.7675 44.7323 6.20775 45.2214 6.55017C46.4933 7.57743 47.1292 8.75144 47.1292 10.0722C47.1292 11.344 46.6156 12.6893 45.5883 14.1079C43.6806 16.7494 41.9685 18.0701 40.452 18.0701C39.5715 18.0701 38.3242 17.532 36.7099 16.4559C34.6554 14.7927 31.916 13.9611 28.4918 13.9611C25.3122 13.9611 22.1815 15.0617 19.0998 17.263C17.6323 18.3392 16.4093 19.8556 15.431 21.8123C14.4526 23.769 13.9635 25.9947 13.9635 28.4895C13.9635 30.9353 14.4526 33.1366 15.431 35.0933C16.4093 37.0499 17.6567 38.5908 19.1731 39.7159C22.1571 41.8683 25.2633 42.9444 28.4918 42.9444C30.0083 42.9444 31.4268 42.7488 32.7476 42.3574C34.1173 41.9661 35.0956 41.5748 35.6826 41.1834Z" fill="#02FDD0"/>
</svg>
