<svg width="69" height="68" viewBox="0 0 69 68" fill="none" xmlns="http://www.w3.org/2000/svg">
<path fill-rule="evenodd" clip-rule="evenodd" d="M21.2551 21.2324C14.1875 28.2999 14.1875 39.7587 21.2551 46.8262C28.3226 53.8938 39.7814 53.8938 46.8489 46.8262C48.0054 45.6697 49.8805 45.6697 51.037 46.8262C52.1935 47.9827 52.1935 49.8578 51.037 51.0143C41.6564 60.3949 26.4475 60.3949 17.067 51.0143C7.6864 41.6337 7.6864 26.4248 17.067 17.0443C26.4475 7.66372 41.6564 7.66372 51.037 17.0443C52.1935 18.2008 52.1935 20.0759 51.037 21.2324C49.8805 22.3889 48.0054 22.3889 46.8489 21.2324C39.7814 14.1648 28.3226 14.1648 21.2551 21.2324Z" fill="#02FDD0"/>
</svg>
