<svg width="206" height="59" viewBox="0 0 206 59" fill="none" xmlns="http://www.w3.org/2000/svg">
<path d="M0.390298 4.20154C0.341393 4.73962 0.31694 5.57121 0.31694 6.6963V41.6231C0.31694 46.8572 1.00178 50.6727 2.37147 53.0696C3.49655 55.0752 5.94239 56.3226 9.709 56.8118C14.5029 57.3988 17.5357 57.252 18.8076 56.3715C19.7859 55.6867 20.2751 53.8034 20.2751 50.7216C20.2751 47.8844 19.7859 46.1479 18.8076 45.512C18.3184 45.1695 17.9026 44.9739 17.5602 44.925C17.2178 44.8271 16.5329 44.7782 15.5057 44.7782C14.5273 44.7782 13.8914 44.5581 13.5979 44.1178C13.3044 43.6287 13.1577 42.5036 13.1577 40.7425V6.76968C13.1577 5.64459 13.1088 4.78854 13.0109 4.20154C12.962 3.61453 12.7419 2.95415 12.3505 2.2204C11.6168 0.899637 9.75791 0.239258 6.77398 0.239258C3.6433 0.239258 1.73553 0.899637 1.05069 2.2204C0.708283 2.95415 0.488142 3.61453 0.390298 4.20154Z" fill="white"/>
<path d="M40.7749 56.9585C35.8343 56.9585 31.7253 55.0997 28.4479 51.382C25.2193 47.6154 23.6051 43.0416 23.6051 37.6608V24.8201C23.6051 23.6461 23.6295 22.79 23.6784 22.2519C23.7763 21.7138 23.9964 21.0779 24.3388 20.3442C25.0237 19.0234 26.9314 18.363 30.0621 18.363C33.4863 18.363 35.4919 19.2924 36.0789 21.1513C36.3724 21.934 36.5192 23.1813 36.5192 24.8934V37.7342C36.5192 39.7398 37.0817 41.3051 38.2068 42.4302C39.3808 43.5553 40.9217 44.1178 42.8294 44.1178C44.7861 44.1178 46.3515 43.5308 47.5255 42.3568C48.7484 41.1828 49.3599 39.6419 49.3599 37.7342V24.7467C49.3599 23.6216 49.3844 22.79 49.4333 22.2519C49.5311 21.6649 49.7757 21.0045 50.167 20.2708C50.8029 18.9989 52.6862 18.363 55.8169 18.363C58.8987 18.363 60.782 19.0234 61.4668 20.3442C61.8092 21.0779 62.0049 21.7383 62.0538 22.3253C62.1517 22.8634 62.2006 23.695 62.2006 24.8201V50.795C62.2006 51.8712 62.1517 52.7028 62.0538 53.2898C62.0049 53.8279 61.7848 54.4393 61.3934 55.1242C60.6597 56.396 58.7764 57.0319 55.7435 57.0319C52.7596 57.0319 50.9252 56.4449 50.2404 55.2709C49.7512 54.4393 49.5066 53.4365 49.5066 52.2625C49.311 52.6049 48.8707 53.0941 48.1859 53.73C47.501 54.3659 46.8406 54.904 46.2047 55.3443C44.5416 56.4205 42.7316 56.9585 40.7749 56.9585Z" fill="white"/>
<path d="M67.0027 50.8684C67.0027 52.1402 67.4674 53.0696 68.3968 53.6566C72.7504 56.396 77.2752 57.7657 81.9713 57.7657C86.7162 57.7657 90.6541 57.0075 93.7848 55.491C95.4968 54.6105 96.8176 53.2898 97.747 51.5288C98.7254 49.7188 99.2145 47.542 99.2145 44.9983C99.2145 42.4546 98.7254 40.3512 97.747 38.688C96.8176 36.9759 95.6436 35.7775 94.225 35.0926C91.1921 33.5762 88.0615 32.6468 84.8329 32.3044C81.5066 31.8641 79.8434 30.9102 79.8434 29.4427C79.8434 28.3665 81.2864 27.8285 84.1726 27.8285C86.0314 27.8285 87.7435 28.1953 89.3088 28.9291C90.9231 29.6628 92.0237 30.0297 92.6107 30.0297C93.7358 30.0297 94.8365 29.1737 95.9126 27.4616C96.9888 25.7495 97.5269 24.3064 97.5269 23.1324C97.5269 21.9584 96.6708 20.9801 94.9588 20.1974C91.29 18.5342 87.7191 17.7026 84.2459 17.7026C73.631 17.7026 68.3235 21.5671 68.3235 29.296C68.3235 31.8886 68.7882 34.1388 69.7176 36.0465C70.647 37.9054 71.821 39.275 73.2396 40.1556C76.2725 42.0144 79.3298 43.1639 82.4115 43.6042C85.689 44.0444 87.3277 44.7293 87.3277 45.6587C87.3277 46.8327 85.8357 47.4197 82.8518 47.4197C81.1886 47.4197 79.3298 46.8327 77.2753 45.6587C75.2207 44.4358 73.582 43.8243 72.3591 43.8243C71.1851 43.8243 70.329 44.2401 69.7909 45.0717C67.9321 47.6643 67.0027 49.5965 67.0027 50.8684Z" fill="white"/>
<path d="M125.309 31.4239L120.54 31.1304V41.2562C120.54 42.5769 120.736 43.5308 121.127 44.1178C121.567 44.7048 122.35 44.9983 123.475 44.9983C124.649 44.9983 125.529 45.0472 126.116 45.1451C126.752 45.194 127.413 45.4141 128.098 45.8055C129.223 46.4414 129.785 48.0801 129.785 50.7216C129.785 53.8034 129.1 55.6867 127.731 56.3715C126.997 56.714 126.337 56.9341 125.75 57.0319C125.211 57.0808 124.404 57.1053 123.328 57.1053C118.241 57.1053 114.376 55.9557 111.735 53.6566C109.093 51.3575 107.773 47.4686 107.773 41.9899V31.1304C106.843 31.2771 105.84 31.3505 104.764 31.3505C103.688 31.3505 102.783 30.9347 102.049 30.1031C101.364 29.2715 101.022 27.8529 101.022 25.8473C101.022 23.8417 101.144 22.3987 101.389 21.5182C101.633 20.5887 101.976 19.9284 102.416 19.537C103.199 18.9011 104.177 18.5831 105.351 18.5831L107.773 18.8766V11.319C107.773 10.1939 107.797 9.36228 107.846 8.82419C107.944 8.28611 108.188 7.6991 108.58 7.06318C109.216 5.84026 111.099 5.2288 114.23 5.2288C117.556 5.2288 119.537 6.13376 120.173 7.94369C120.418 8.72636 120.54 9.97374 120.54 11.6858V18.8766C122.692 18.681 124.306 18.5831 125.383 18.5831C126.508 18.5831 127.339 18.6321 127.877 18.7299C128.464 18.7788 129.125 18.9989 129.859 19.3903C131.13 20.0262 131.766 21.9095 131.766 25.0402C131.766 28.122 131.106 30.0053 129.785 30.6901C129.051 31.0325 128.391 31.2527 127.804 31.3505C127.266 31.3994 126.434 31.4239 125.309 31.4239Z" fill="white"/>
<path fill-rule="evenodd" clip-rule="evenodd" d="M169.385 39.862C170.901 38.3945 171.66 36.1688 171.66 33.1849C171.66 30.152 170.828 27.3637 169.165 24.8201C165.985 20.0262 160.996 17.6293 154.196 17.6293C148.228 17.6293 143.239 19.4881 139.228 23.2058C135.265 26.8746 133.284 31.7907 133.284 37.9543C133.284 42.846 134.825 47.273 137.907 51.2353C139.472 53.2898 141.649 54.9529 144.437 56.2248C147.275 57.4477 150.503 58.0592 154.123 58.0592C164.542 58.0592 169.752 55.8824 169.752 51.5288C169.752 50.5993 169.434 49.4742 168.798 48.1535C167.673 45.9522 166.328 44.8516 164.762 44.8516C163.98 44.8516 163.001 45.1206 161.827 45.6587L161.02 45.9522C159.406 46.5392 157.18 46.8327 154.343 46.8327C152.729 46.8327 151.115 46.368 149.5 45.4386C147.886 44.5092 147.079 43.3596 147.079 41.9899H164.469C166.279 41.9899 167.918 41.2806 169.385 39.862ZM158.966 32.9647C158.966 34.5301 158.036 35.3128 156.177 35.3128H146.932C146.932 33.8452 147.715 32.4756 149.28 31.2037C150.846 29.883 152.411 29.2226 153.976 29.2226C155.59 29.2226 156.813 29.565 157.645 30.2498C158.525 30.9347 158.966 31.8397 158.966 32.9647Z" fill="white"/>
<path d="M202.715 18.8766C203.645 19.1701 204.403 19.6838 204.99 20.4175C205.626 21.1024 205.944 22.2275 205.944 23.7928C205.944 25.3581 205.479 27.0702 204.55 28.9291C203.62 30.7879 202.275 31.7174 200.514 31.7174C199.634 31.7174 198.778 31.5217 197.946 31.1304C197.163 30.739 196.111 30.5434 194.791 30.5434C193.47 30.5434 192.223 31.0081 191.049 31.9375C189.924 32.8669 189.361 33.992 189.361 35.3128V50.7216C189.361 51.8467 189.312 52.7028 189.214 53.2898C189.165 53.8279 188.945 54.4638 188.554 55.1975C187.82 56.4694 185.912 57.1053 182.831 57.1053C180.483 57.1053 178.795 56.6895 177.768 55.8579C176.985 55.1731 176.545 54.1214 176.447 52.7028V24.8201C176.447 23.695 176.471 22.8634 176.52 22.3253C176.618 21.7383 176.838 21.1024 177.181 20.4175C177.865 19.0968 179.773 18.4364 182.904 18.4364C185.839 18.4364 187.673 18.9989 188.407 20.124C188.945 20.9067 189.214 21.7138 189.214 22.5454C189.459 22.203 189.801 21.7872 190.241 21.298C190.731 20.8089 191.733 20.1485 193.25 19.3169C194.766 18.4853 196.087 18.0695 197.212 18.0695C198.386 18.0695 199.365 18.1429 200.147 18.2896C200.93 18.3875 201.786 18.5831 202.715 18.8766Z" fill="white"/>
</svg>
