<svg width="66" height="56" viewBox="0 0 66 56" fill="none" xmlns="http://www.w3.org/2000/svg">
<path d="M0.165573 19.7526C0.165573 8.91423 8.95185 0.12793 19.7903 0.12793C24.9071 0.12793 29.5666 2.08623 33.0601 5.29425C36.5536 2.08624 41.2131 0.12793 46.33 0.12793C57.1684 0.12793 65.9547 8.91421 65.9547 19.7526V48.7051C65.9547 52.2148 63.1095 55.0599 59.5998 55.0599C56.0901 55.0599 53.245 52.2148 53.245 48.7051V19.7526C53.245 15.9336 50.149 12.8376 46.33 12.8376C42.5186 12.8376 39.4274 15.9212 39.415 19.7297C39.415 19.7373 39.415 19.745 39.415 19.7526V48.7051C39.415 50.8986 38.3036 52.8326 36.6132 53.9746C35.599 54.6598 34.3763 55.0599 33.0601 55.0599C32.6215 55.0599 32.1931 55.0154 31.7794 54.9308C30.7365 54.7174 29.7865 54.2485 28.998 53.5923C28.9605 53.5611 28.9234 53.5295 28.8867 53.4976C28.8682 53.4814 28.8498 53.4652 28.8315 53.4489C27.5268 52.285 26.7053 50.591 26.7053 48.7051V19.7526C26.7053 19.745 26.7053 19.7373 26.7053 19.7296C26.6929 15.9212 23.6017 12.8376 19.7903 12.8376C15.9712 12.8376 12.8753 15.9336 12.8753 19.7526V48.7051C12.8753 52.2148 10.0301 55.0599 6.52042 55.0599C3.01073 55.0599 0.165573 52.2148 0.165573 48.7051V19.7526Z" fill="white"/>
</svg>
