<svg width="146" height="58" viewBox="0 0 146 58" fill="none" xmlns="http://www.w3.org/2000/svg">
<path d="M89.8105 24.6891C89.8105 23.564 89.835 22.7324 89.8839 22.1943C89.9817 21.6073 90.2019 20.9469 90.5443 20.2132C91.2292 18.9413 93.1369 18.3054 96.2676 18.3054C98.6156 18.3054 100.279 18.7212 101.257 19.5528C102.089 20.2376 102.529 21.2893 102.578 22.7079C102.627 23.1971 102.651 23.9064 102.651 24.8358V50.5173C102.651 51.6423 102.602 52.4984 102.505 53.0854C102.456 53.6235 102.235 54.2594 101.844 54.9932C101.208 56.265 99.3249 56.9009 96.1942 56.9009C93.1125 56.9009 91.2292 56.2405 90.5443 54.9198C90.2019 54.186 89.9817 53.5501 89.8839 53.012C89.835 52.4739 89.8105 51.6179 89.8105 50.4439V24.6891Z" fill="white"/>
<path d="M101.844 11.1146C101.502 11.7994 100.866 12.2886 99.9364 12.5821C99.007 12.8756 97.7596 13.0224 96.1942 13.0224C94.6778 13.0224 93.4549 12.8756 92.5254 12.5821C91.596 12.2886 90.9357 11.775 90.5443 11.0412C90.2019 10.3075 89.9817 9.67154 89.8839 9.13346C89.835 8.54645 89.8105 7.6904 89.8105 6.56531C89.8105 5.44022 89.835 4.60863 89.8839 4.07055C89.9817 3.48354 90.2019 2.84762 90.5443 2.16278C91.2292 0.842021 93.1369 0.181641 96.2676 0.181641C99.3494 0.181641 101.208 0.842021 101.844 2.16278C102.235 2.89654 102.456 3.55692 102.505 4.14392C102.602 4.68201 102.651 5.5136 102.651 6.63869C102.651 7.76378 102.602 8.61983 102.505 9.20683C102.456 9.74492 102.235 10.3808 101.844 11.1146Z" fill="white"/>
<path fill-rule="evenodd" clip-rule="evenodd" d="M6.3069 23.0748C2.19787 26.8903 0.143356 31.7331 0.143356 37.6032C0.143356 41.5165 1.17061 45.0386 3.22513 48.1692C5.32856 51.251 7.8967 53.599 10.9296 55.2133C13.9624 56.7786 17.0931 57.5613 20.3216 57.5613C23.5502 57.5613 26.6564 56.8276 29.6403 55.36C32.6732 53.8436 35.2413 51.5201 37.3447 48.3894C39.4482 45.2098 40.4999 41.5899 40.4999 37.5298C40.4999 31.6597 38.4698 26.8414 34.4097 23.0748C30.3496 19.2593 25.678 17.3515 20.395 17.3515C15.112 17.3515 10.4159 19.2593 6.3069 23.0748ZM20.2483 44.6472C18.634 44.6472 17.0442 44.0602 15.4788 42.8862C13.9135 41.6633 13.1308 39.8778 13.1308 37.5298C13.1308 35.1329 13.889 33.3229 15.4055 32.1C16.9219 30.8771 18.5606 30.2656 20.3216 30.2656C22.0826 30.2656 23.7214 30.8526 25.2378 32.0266C26.7542 33.2006 27.5124 34.9861 27.5124 37.383C27.5124 39.78 26.7053 41.5899 25.091 42.8128C23.4768 44.0358 21.8625 44.6472 20.2483 44.6472Z" fill="white"/>
<path d="M84.3297 27.991C85.3081 26.2789 85.7972 24.9337 85.7972 23.9553C85.7972 22.2432 84.5254 20.629 81.9817 19.1125C80.2696 18.0853 78.9244 17.5716 77.9461 17.5716C76.9677 17.5716 76.185 17.7918 75.598 18.232C75.0111 18.6234 74.5708 19.0392 74.2773 19.4794C74.0327 19.8707 73.6414 20.5311 73.1033 21.4605L63.4911 39.9512L53.8789 21.4605C53.1941 20.1398 52.5337 19.1614 51.8978 18.5255C51.3107 17.8407 50.4792 17.4983 49.403 17.4983C48.3268 17.4983 46.8593 18.0364 45.0005 19.1125C42.4568 20.629 41.1849 22.2677 41.1849 24.0287C41.1849 25.056 41.6741 26.3767 42.6524 27.991L57.9145 54.1127L58.5749 54.9198C58.9663 55.4579 59.6266 55.996 60.5561 56.534C61.5344 57.0232 62.5372 57.2678 63.5645 57.2678C64.6406 57.2678 65.7168 56.9498 66.793 56.3139C67.8692 55.6291 68.6518 54.8709 69.141 54.0393L84.3297 27.991Z" fill="white"/>
<path fill-rule="evenodd" clip-rule="evenodd" d="M143.513 39.6577C145.029 38.1902 145.787 35.9644 145.787 32.9805C145.787 29.9477 144.956 27.1594 143.293 24.6157C140.113 19.8218 135.124 17.4249 128.324 17.4249C122.356 17.4249 117.367 19.2837 113.356 23.0014C109.393 26.6702 107.412 31.5864 107.412 37.7499C107.412 42.6416 108.953 47.0686 112.035 51.0309C113.6 53.0854 115.777 54.7486 118.565 56.0204C121.402 57.2434 124.631 57.8548 128.251 57.8548C138.67 57.8548 143.88 55.678 143.88 51.3244C143.88 50.395 143.562 49.2699 142.926 47.9491C141.801 45.7478 140.456 44.6472 138.89 44.6472C138.108 44.6472 137.129 44.9163 135.955 45.4543L135.148 45.7478C133.534 46.3348 131.308 46.6284 128.471 46.6284C126.857 46.6284 125.242 46.1636 123.628 45.2342C122.014 44.3048 121.207 43.1552 121.207 41.7856H138.597C140.407 41.7856 142.045 41.0763 143.513 39.6577ZM133.094 32.7604C133.094 34.3257 132.164 35.1084 130.305 35.1084H121.06C121.06 33.6409 121.843 32.2712 123.408 30.9994C124.973 29.6786 126.539 29.0182 128.104 29.0182C129.718 29.0182 130.941 29.3606 131.773 30.0455C132.653 30.7303 133.094 31.6353 133.094 32.7604Z" fill="white"/>
</svg>
