<svg width="30" height="30" viewBox="0 0 30 30" fill="none" xmlns="http://www.w3.org/2000/svg">
<path d="M11.0754 18.6964L11.7957 18.0027L11.7957 18.0027L11.0754 18.6964ZM4.75702 23.6003C4.36649 23.9908 4.36647 24.624 4.75699 25.0145C5.1475 25.4051 5.78067 25.4051 6.1712 25.0146L4.75702 23.6003ZM23.5358 13.3931C23.5358 17.0808 20.5026 20.0929 16.7327 20.0929V22.0929C21.5819 22.0929 25.5358 18.2104 25.5358 13.3931H23.5358ZM9.92958 13.3931C9.92958 9.70548 12.9628 6.69336 16.7327 6.69336V4.69336C11.8835 4.69336 7.92958 8.57585 7.92958 13.3931H9.92958ZM16.7327 6.69336C20.5026 6.69336 23.5358 9.70548 23.5358 13.3931H25.5358C25.5358 8.57586 21.5819 4.69336 16.7327 4.69336V6.69336ZM16.7327 20.0929C14.7867 20.0929 13.0352 19.2897 11.7957 18.0027L10.3552 19.3901C11.959 21.0554 14.2253 22.0929 16.7327 22.0929V20.0929ZM11.7957 18.0027C10.6369 16.7994 9.92958 15.1777 9.92958 13.3931H7.92958C7.92958 15.7191 8.85438 17.8317 10.3552 19.3901L11.7957 18.0027ZM10.3683 17.9893L4.75702 23.6003L6.1712 25.0146L11.7825 19.4035L10.3683 17.9893Z" fill="black"/>
<path d="M21.3349 13.4292C21.3349 10.9247 19.3047 8.89453 16.8003 8.89453" stroke="black" stroke-width="2" stroke-linecap="round" stroke-linejoin="round"/>
</svg>
