<svg width="46" height="46" viewBox="0 0 46 46" fill="none" xmlns="http://www.w3.org/2000/svg">
<path d="M18.3462 31.2278C16.6721 30.2613 14.5316 30.8348 13.5651 32.5088C12.5986 34.1829 13.1721 36.3234 14.8462 37.2899L18.3462 31.2278ZM8.80674 14.7505C7.84024 16.4245 8.41381 18.5651 10.0878 19.5316C11.7619 20.4981 13.9024 19.9245 14.8689 18.2505L8.80674 14.7505ZM14.8689 18.2505C17.4923 13.7067 23.3024 12.1499 27.8462 14.7733L31.3462 8.7111C23.4543 4.15475 13.3631 6.85869 8.80674 14.7505L14.8689 18.2505ZM27.8462 14.7733C32.3899 17.3966 33.9468 23.2067 31.3234 27.7505L37.3856 31.2505C41.9419 23.3587 39.238 13.2674 31.3462 8.7111L27.8462 14.7733ZM31.3234 27.7505C28.7 32.2943 22.8899 33.8511 18.3462 31.2278L14.8462 37.2899C22.738 41.8463 32.8292 39.1423 37.3856 31.2505L31.3234 27.7505Z" fill="white"/>
</svg>
